# xmcd
#
# Track frame offsets: 
#        150
#        17613
#        33791
#        51639
#        66039
#        78307
#        95775
#        109932
#        124494
#        138312
#        152195
#        171245
#        187037
#        198092
#
# Disc length: 2827 seconds
#
# Revision: 3
# Processed by: cddbd v1.5.2PL0 Copyright (c) Steve Scherf et al.
# Submitted via: ExactAudioCopy v0.95b4
#
DISCID=c50b090e
DTITLE=Various Artist - Hot Hits Country Vol. 65
DYEAR=1900
DGENRE=
TTITLE0=One Night At A Time - George Strait
TTITLE1=Sad Lookin Moon - Alabama
TTITLE2=Why Would I Say Goodbye - Brooks and Dunn
TTITLE3=A Little More Love - Vince Gill
TTITLE4=A Girl's Gotta Do (What A Girl's Gotta Do) - Mindy McCready
TTITLE5=On The Verge - Collin Raye
TTITLE6=Cry On The Shoulder Of The Road - Martina McBride
TTITLE7=Never Again Again - Lee Ann Wornack
TTITLE8=Let It Rain - Mark Chesnutt
TTITLE9=Whatever Comes First - Sons Of The Desert
TTITLE10=The Hopechest Song - Stephanie Bentley
TTITLE11=Little Things - Tanya Tucker
TTITLE12=The Used To Be's - Daryle Singletary
TTITLE13=A Dozen Red Roses - Tammy Graham
EXTD=
EXTT0=Strait - George
EXTT1=Alabama
EXTT2=Brooks and Dunn
EXTT3=Gill - Vince
EXTT4=McCready - Mindy
EXTT5=Raye - Collin
EXTT6=McBride - Martina
EXTT7=Womack - Lee Ann
EXTT8=Chesnutt - Mark
EXTT9=Sons Of The Dessert
EXTT10=Bentley - Stephanie
EXTT11=Tucker - Tanya
EXTT12=Singletary - Daryle
EXTT13=Graham - Tammy
PLAYORDER=
